<?xml version="1.0" standalone="no"?>
<!DOCTYPE svg PUBLIC "-//W3C//DTD SVG 20010904//EN"
 "http://www.w3.org/TR/2001/REC-SVG-20010904/DTD/svg10.dtd">
<svg version="1.0" xmlns="http://www.w3.org/2000/svg"
 width="500.000000pt" height="500.000000pt" viewBox="0 0 500.000000 500.000000"
 preserveAspectRatio="xMidYMid meet">
<metadata>
Created by potrace 1.11, written by Peter Selinger 2001-2013
</metadata>
<g transform="translate(0.000000,500.000000) scale(0.100000,-0.100000)"
fill="#000000" stroke="none">
<path d="M2305 4780 c-903 -77 -1683 -691 -1970 -1552 -49 -148 -86 -310 -105
-463 -19 -145 -8 -508 19 -657 70 -387 232 -743 474 -1043 91 -112 297 -310
415 -398 328 -244 710 -393 1120 -437 157 -17 493 -7 632 18 235 44 412 102
615 202 294 144 538 337 754 597 578 692 688 1679 279 2487 -150 295 -345 533
-609 746 -146 118 -262 192 -424 270 -282 138 -542 206 -870 230 -154 11 -197
11 -330 0z m400 -140 c895 -84 1659 -739 1875 -1609 47 -189 64 -325 64 -531
1 -342 -68 -643 -214 -938 -284 -573 -784 -983 -1385 -1137 -436 -111 -893
-89 -1299 64 -652 245 -1160 812 -1326 1480 -158 634 -34 1274 347 1799 87
120 272 316 382 404 263 212 583 363 922 433 208 43 419 55 634 35z"/>
<path d="M2260 4559 c-320 -36 -641 -156 -920 -342 -207 -139 -430 -365 -571
-579 -347 -529 -433 -1192 -230 -1796 360 -1077 1534 -1664 2610 -1305 319
106 572 263 806 498 325 326 518 705 592 1160 24 151 24 458 -1 610 -96 594
-408 1086 -899 1419 -264 179 -595 299 -922 336 -105 12 -358 11 -465 -1z
m542 -135 c717 -115 1315 -621 1542 -1306 199 -600 93 -1267 -281 -1770 -302
-406 -732 -671 -1238 -764 -155 -29 -520 -26 -675 4 -400 79 -718 245 -1008
526 -263 256 -439 558 -527 904 -149 589 -26 1182 348 1677 79 104 250 274
356 354 288 219 634 354 996 391 116 11 368 3 487 -16z"/>
<path d="M890 2455 l0 -935 443 2 442 3 0 85 0 85 -347 3 -348 2 0 370 0 370
204 0 204 0 30 89 c17 49 28 92 24 95 -3 3 -108 6 -234 6 l-228 0 0 290 0 290
350 0 350 0 0 90 0 90 -445 0 -445 0 0 -935z"/>
<path d="M2430 3385 c0 -3 -121 -417 -270 -921 -148 -503 -270 -922 -270 -930
0 -11 20 -14 100 -14 l99 0 17 58 c10 31 49 167 89 302 l71 245 278 0 279 0
91 -300 92 -300 108 -3 c100 -2 108 -1 104 15 -3 10 -130 431 -284 935 l-279
918 -112 0 c-62 0 -113 -2 -113 -5z m229 -682 c61 -199 111 -365 111 -368 0
-3 -102 -5 -226 -5 -221 0 -225 0 -219 20 3 11 51 172 106 358 111 375 108
366 113 361 2 -2 53 -167 115 -366z"/>
<path d="M1520 2952 c0 -5 56 -213 125 -463 69 -250 128 -464 132 -477 5 -21
10 -23 71 -20 l66 3 131 480 132 480 -50 3 c-27 2 -53 0 -57 -5 -4 -4 -54
-179 -110 -388 -56 -209 -105 -386 -109 -393 -4 -8 -56 165 -117 387 l-109
401 -52 0 c-29 0 -53 -4 -53 -8z"/>
<path d="M3120 2476 l0 -486 50 0 50 0 0 159 0 159 163 4 c143 3 167 6 202 25
93 50 125 115 132 274 8 166 -34 270 -129 321 -40 22 -57 23 -255 26 l-213 3
0 -485z m408 370 c72 -37 96 -99 90 -230 -5 -110 -23 -154 -77 -184 -35 -20
-54 -22 -180 -22 l-141 0 0 225 0 225 140 0 c102 0 149 -4 168 -14z"/>
<path d="M3770 2476 l0 -486 50 0 50 0 0 159 0 159 163 4 c134 3 168 6 197 22
90 48 129 124 137 271 9 162 -39 280 -134 327 -45 21 -61 23 -255 26 l-208 3
0 -485z m420 361 c61 -41 75 -78 75 -202 0 -124 -14 -161 -75 -202 -30 -21
-44 -23 -176 -23 l-144 0 0 225 0 225 144 0 c132 0 146 -2 176 -23z"/>
</g>
</svg>
